<svg width="32" height="32" viewBox="0 0 32 32" fill="none" xmlns="http://www.w3.org/2000/svg">
<mask id="mask0_331_6993" style="mask-type:luminance" maskUnits="userSpaceOnUse" x="1" y="1" width="30" height="30">
<path d="M31 16C31 7.71573 24.2843 1 16 1C7.71573 1 1 7.71573 1 16C1 24.2843 7.71573 31 16 31C24.2843 31 31 24.2843 31 16Z" fill="white"/>
</mask>
<g mask="url(#mask0_331_6993)">
<path d="M31 1H1V31H31V1Z" fill="url(#paint0_linear_331_6993)"/>
<path opacity="0.65" d="M14.6143 8.10444C15.0309 6.93978 15.2392 6.35745 15.5581 6.18695C15.832 6.04055 16.1682 6.04055 16.442 6.18695C16.761 6.35745 16.9693 6.93978 17.3859 8.10444C18.134 10.1957 19.0366 12.7666 19.6969 14.7988C20.3527 16.8172 21.1275 19.4061 21.7494 21.5296C22.1024 22.7348 22.2788 23.3374 22.1215 23.6626C21.9858 23.943 21.7162 24.1394 21.4077 24.1826C21.0499 24.2328 20.5283 23.8786 19.4849 23.1704L16.8426 21.3766C16.5384 21.1701 16.3864 21.0669 16.2216 21.0268C16.076 20.9914 15.9241 20.9914 15.7785 21.0268C15.6138 21.0669 15.4617 21.1701 15.1576 21.3766L12.5152 23.1704C11.4719 23.8786 10.9502 24.2328 10.5925 24.1826C10.284 24.1394 10.0144 23.943 9.87869 23.6626C9.72132 23.3374 9.8978 22.7348 10.2508 21.5296C10.8727 19.4061 11.6474 16.8172 12.3032 14.7988C12.9635 12.7666 13.8662 10.1957 14.6143 8.10444Z" fill="white"/>
<path d="M23.0565 12.262C24.2929 12.2983 24.9111 12.3165 25.1718 12.5672C25.3957 12.7824 25.4996 13.1021 25.445 13.4078C25.3814 13.7639 24.8919 14.1419 23.913 14.898C22.1552 16.2557 19.9891 17.9086 18.2604 19.1646C16.5435 20.412 14.3207 21.9489 12.4933 23.1966C11.4562 23.9047 10.9376 24.2587 10.5797 24.2095C10.2711 24.1671 10.001 23.9714 9.86456 23.6914C9.70632 23.3667 9.88192 22.7611 10.2331 21.55L11.1225 18.4826C11.2249 18.1295 11.2761 17.953 11.2633 17.784C11.252 17.6346 11.205 17.4901 11.1264 17.3626C11.0374 17.2183 10.8922 17.1056 10.6019 16.8801L8.07934 14.9214C7.08334 14.148 6.58534 13.7613 6.52247 13.4055C6.46826 13.0988 6.57175 12.7817 6.79648 12.566C7.05712 12.3158 7.68476 12.2974 8.94004 12.2607C11.1518 12.196 13.8534 12.1328 15.9757 12.1328C18.1124 12.1328 20.8364 12.1968 23.0565 12.262Z" fill="white"/>
</g>
<defs>
<linearGradient id="paint0_linear_331_6993" x1="16" y1="1" x2="16" y2="31" gradientUnits="userSpaceOnUse">
<stop stop-color="#79C9FF"/>
<stop offset="1" stop-color="#007AFF"/>
</linearGradient>
</defs>
</svg>
